<svg width="82" height="46" viewBox="0 0 82 46" fill="none" xmlns="http://www.w3.org/2000/svg">
<g id="player-vs-cpu">
<circle id="Oval Copy 20" cx="59" cy="23" r="23" fill="white"/>
<g id="Group 2">
<circle id="Oval Copy 11" cx="59" cy="23" r="20" fill="#FD6687"/>
<g id="Group 8">
<g id="Group 7">
<g id="Group 9">
<g id="Group 10">
<path id="Path Copy" d="M66.0833 14.4166V17.4166H61.0833V14.4166H66.0833Z" fill="white"/>
<path id="Path Copy 2" d="M56.9167 14.4166V17.4166H51.9167V14.4166H56.9167Z" fill="white"/>
<path id="Path 2" d="M69 20.25V23.25H49V20.25H69Z" fill="white"/>
</g>
</g>
</g>
</g>
</g>
<circle id="Oval Copy 19" cx="23" cy="23" r="23" fill="white"/>
<g id="Group">
<circle id="Oval Copy 11_2" cx="23" cy="23" r="20" fill="#FD6687"/>
<g id="Group 8_2">
<path id="Oval Copy 11_3" d="M35.25 21.2083C35.25 27.5595 30.1013 32.7083 23.75 32.7083C17.3987 32.7083 12.25 27.5595 12.25 21.2083H15.25C15.25 25.9027 19.0556 29.7083 23.75 29.7083C28.4444 29.7083 32.25 25.9027 32.25 21.2083H35.25Z" fill="white"/>
<g id="Group 7_2">
<path id="Path" d="M20.5417 14.6666V19.6536H17.5417V14.6666H20.5417Z" fill="white"/>
<path id="Path Copy_2" d="M28.875 14.6666V19.6536H25.875V14.6666H28.875Z" fill="white"/>
</g>
</g>
</g>
</g>
</svg>
