<svg width="54" height="59" viewBox="0 0 54 59" fill="none" xmlns="http://www.w3.org/2000/svg">
<g id="player-two">
<circle id="Oval Copy 21" r="27" transform="matrix(-1 0 0 1 27 27)" fill="black"/>
<circle id="Oval Copy 40" r="27" transform="matrix(-1 0 0 1 27 32)" fill="black"/>
<circle id="Oval Copy 11" r="24" transform="matrix(-1 0 0 1 27 27)" fill="#FFCE67"/>
<g id="Group 8">
<path id="Oval Copy 11_2" d="M8.75 25C8.75 32.4558 14.7942 38.5 22.25 38.5C29.7058 38.5 35.75 32.4558 35.75 25H32.75C32.75 30.799 28.049 35.5 22.25 35.5C16.451 35.5 11.75 30.799 11.75 25H8.75Z" fill="black"/>
<g id="Group 7">
<path id="Path" d="M23.25 17V22.9844H26.25V17H23.25Z" fill="black"/>
<path id="Path Copy" d="M13.25 17V22.9844H16.25V17H13.25Z" fill="black"/>
</g>
</g>
</g>
</svg>
