<svg width="82" height="46" viewBox="0 0 82 46" fill="none" xmlns="http://www.w3.org/2000/svg">
<g id="player-vs-player">
<circle id="Oval Copy 17" cx="59" cy="23" r="23" fill="black"/>
<circle id="Oval Copy 11" cx="59" cy="23" r="20" fill="#FFCE67"/>
<g id="Group 8">
<path id="Oval Copy 11_2" d="M74.5833 21.2083C74.5833 27.5595 69.4346 32.7083 63.0833 32.7083C56.732 32.7083 51.5833 27.5595 51.5833 21.2083H54.5833C54.5833 25.9027 58.3889 29.7083 63.0833 29.7083C67.7777 29.7083 71.5833 25.9027 71.5833 21.2083H74.5833Z" fill="black"/>
<g id="Group 7">
<path id="Path" d="M62.375 14.6666V19.6536H59.375V14.6666H62.375Z" fill="black"/>
<path id="Path Copy" d="M70.7083 14.6666V19.6536H67.7083V14.6666H70.7083Z" fill="black"/>
</g>
</g>
<circle id="Oval Copy 18" cx="23" cy="23" r="23" fill="black"/>
<g id="Group 2">
<circle id="Oval Copy 11_3" cx="23" cy="23" r="20" fill="#FFCE67"/>
<g id="Group 8_2">
<path id="Oval Copy 11_4" d="M38.5833 21.2083C38.5833 27.5595 33.4346 32.7083 27.0833 32.7083C20.732 32.7083 15.5833 27.5595 15.5833 21.2083H18.5833C18.5833 25.9027 22.3889 29.7083 27.0833 29.7083C31.7777 29.7083 35.5833 25.9027 35.5833 21.2083H38.5833Z" fill="black"/>
<g id="Group 7_2">
<path id="Path_2" d="M26.375 14.6666V19.6536H23.375V14.6666H26.375Z" fill="black"/>
<path id="Path Copy_2" d="M34.7083 14.6666V19.6536H31.7083V14.6666H34.7083Z" fill="black"/>
</g>
</g>
</g>
</g>
</svg>
