<svg width="54" height="59" viewBox="0 0 54 59" fill="none" xmlns="http://www.w3.org/2000/svg">
<g id="you">
<circle id="Oval Copy 21" r="27" transform="matrix(-1 0 0 1 27 27)" fill="black"/>
<circle id="Oval Copy 40" r="27" transform="matrix(-1 0 0 1 27 32)" fill="black"/>
<circle id="Oval Copy 11" r="24" transform="matrix(-1 0 0 1 27 27)" fill="#FD6687"/>
<g id="Group 22">
<path id="Oval Copy 11_2" d="M12.75 25.25C12.75 32.7058 18.7942 38.75 26.25 38.75C33.7058 38.75 39.75 32.7058 39.75 25.25H36.75C36.75 31.049 32.049 35.75 26.25 35.75C20.451 35.75 15.75 31.049 15.75 25.25H12.75Z" fill="black"/>
<g id="Group 7">
<path id="Path" d="M30 17V22.9844H33V17H30Z" fill="black"/>
<path id="Path Copy" d="M20 17V22.9844H23V17H20Z" fill="black"/>
</g>
</g>
</g>
</svg>
